<svg id="svg" version="1.1" xmlns="http://www.w3.org/2000/svg" xmlns:xlink="http://www.w3.org/1999/xlink" width="400" height="400" viewBox="0, 0, 400,400"><g id="svgg"><path id="path0" d="M293.818 148.452 C 272.786 151.105,261.136 163.409,262.234 181.807 C 263.220 198.303,270.857 205.173,297.070 213.140 C 315.170 218.641,318.164 221.102,318.164 230.477 C 318.164 247.778,295.361 251.869,269.616 239.186 C 268.052 238.416,266.679 237.878,266.566 237.992 C 266.069 238.488,261.713 253.581,261.954 253.971 C 263.779 256.925,281.245 262.081,292.221 262.907 C 323.099 265.230,342.025 250.004,339.066 225.222 C 337.171 209.359,330.243 203.274,304.492 194.856 C 285.087 188.513,283.413 187.242,283.473 178.906 C 283.579 164.097,302.123 160.095,326.116 169.703 C 330.259 171.362,329.959 171.479,331.557 167.578 C 332.217 165.967,333.551 162.757,334.520 160.445 L 336.283 156.242 332.692 154.525 C 322.369 149.588,305.591 146.967,293.818 148.452 M102.344 205.664 L 102.344 261.719 112.305 261.719 L 122.266 261.719 122.266 240.278 L 122.266 218.836 132.910 219.036 C 154.992 219.450,165.580 216.659,173.480 208.341 C 184.206 197.048,185.172 174.210,175.416 162.594 C 166.284 151.721,157.475 149.620,120.996 149.613 L 102.344 149.609 102.344 205.664 M65.234 205.859 L 65.234 261.719 75.586 261.719 L 85.938 261.719 85.938 205.859 L 85.938 150.000 75.586 150.000 L 65.234 150.000 65.234 205.859 M190.234 205.859 L 190.234 261.719 200.388 261.719 L 210.541 261.719 210.642 237.988 L 210.742 214.258 231.934 214.415 L 253.125 214.573 253.125 206.310 L 253.125 198.047 231.836 198.047 L 210.547 198.047 210.547 182.227 L 210.547 166.406 232.965 166.406 L 255.383 166.406 255.628 162.012 C 255.763 159.595,255.977 155.903,256.104 153.809 L 256.334 150.000 223.284 150.000 L 190.234 150.000 190.234 205.859 M147.622 165.801 C 159.418 168.747,164.855 178.653,161.454 191.004 C 158.663 201.139,151.512 204.402,132.526 204.206 L 122.461 204.102 122.359 184.961 C 122.303 174.434,122.351 165.577,122.465 165.280 C 122.774 164.473,144.068 164.914,147.622 165.801 " stroke="none" fill="#fbfbfb" fill-rule="evenodd"></path><path id="path1" d="M198.440 0.622 C 197.690 0.948,196.723 1.537,196.292 1.933 C 195.861 2.328,188.389 6.775,179.688 11.814 C 155.775 25.663,83.241 67.531,35.352 95.128 C 31.067 97.597,28.825 99.132,28.223 100.009 L 27.344 101.287 27.344 199.609 L 27.344 297.931 28.223 299.209 C 28.870 300.151,32.082 302.205,40.430 307.017 C 56.891 316.505,131.266 359.433,145.898 367.892 C 184.649 390.293,195.706 396.724,197.501 397.906 C 199.978 399.537,200.413 399.537,202.889 397.906 C 204.684 396.724,215.742 390.293,254.492 367.892 C 269.125 359.433,343.499 316.505,359.961 307.017 C 368.308 302.205,371.520 300.151,372.168 299.209 L 373.047 297.931 373.047 199.609 L 373.047 101.287 372.168 100.003 C 371.528 99.069,368.793 97.285,362.109 93.445 C 345.792 84.068,243.802 25.192,220.703 11.814 C 212.002 6.775,204.529 2.327,204.096 1.930 C 202.253 0.241,200.340 -0.202,198.440 0.622 M316.992 149.210 C 324.162 150.638,336.328 155.118,336.328 156.330 C 336.328 156.646,330.496 171.083,330.226 171.433 C 330.166 171.512,328.569 170.955,326.679 170.196 C 302.062 160.302,283.735 164.109,283.806 179.102 C 283.842 186.925,285.932 188.610,301.953 193.731 C 326.428 201.554,334.114 206.672,337.651 217.503 C 347.856 248.750,320.819 269.951,281.282 261.704 C 275.401 260.477,263.053 255.761,261.404 254.112 C 261.229 253.937,266.035 238.152,266.375 237.786 C 266.528 237.622,268.488 238.349,270.729 239.402 C 297.643 252.049,321.294 246.188,317.988 227.689 C 316.746 220.741,313.071 218.214,297.344 213.492 C 286.494 210.235,282.461 208.821,278.839 207.006 C 255.419 195.268,256.058 162.645,279.917 151.937 C 288.569 148.055,305.089 146.839,316.992 149.210 M86.232 205.762 L 86.331 261.719 75.783 261.719 L 65.234 261.719 65.234 205.658 L 65.234 149.597 75.684 149.701 L 86.133 149.805 86.232 205.762 M150.078 150.189 C 172.920 153.185,184.342 166.666,182.105 187.988 C 180.178 206.360,170.292 215.966,150.391 218.806 C 146.467 219.366,125.763 219.522,123.730 219.007 L 122.656 218.735 122.656 240.227 L 122.656 261.719 112.305 261.719 L 101.953 261.719 101.953 205.664 L 101.953 149.609 123.808 149.609 C 140.876 149.609,146.630 149.736,150.078 150.189 M256.352 149.902 C 256.434 150.063,256.312 153.799,256.082 158.203 L 255.664 166.211 233.301 166.312 L 210.938 166.413 210.938 182.230 L 210.938 198.047 232.227 198.047 L 253.516 198.047 253.516 206.250 L 253.516 214.453 232.227 214.453 L 210.938 214.453 210.938 238.086 L 210.938 261.719 200.640 261.719 L 190.343 261.719 190.145 205.957 C 190.036 175.288,190.022 150.063,190.114 149.902 C 190.205 149.741,205.113 149.609,223.242 149.609 C 241.371 149.609,256.271 149.741,256.352 149.902 M122.656 184.519 L 122.656 203.804 124.121 204.046 C 132.161 205.375,148.621 203.603,153.648 200.867 C 164.091 195.183,165.198 176.242,155.484 169.440 C 150.576 166.004,146.458 165.234,132.973 165.234 L 122.656 165.234 122.656 184.519 " stroke="none" fill="#3f8989" fill-rule="evenodd"></path><path id="path2" d="M210.722 185.352 C 210.722 192.441,210.774 195.397,210.839 191.919 C 210.904 188.442,210.904 182.641,210.839 179.029 C 210.775 175.416,210.722 178.262,210.722 185.352 M210.730 238.086 C 210.730 251.191,210.780 256.496,210.840 249.874 C 210.900 243.252,210.900 232.530,210.840 226.046 C 210.779 219.563,210.730 224.980,210.730 238.086 M134.277 219.423 C 134.976 219.510,136.118 219.510,136.816 219.423 C 137.515 219.337,136.943 219.266,135.547 219.266 C 134.150 219.266,133.579 219.337,134.277 219.423 " stroke="none" fill="#83b1b2" fill-rule="evenodd"></path><path id="path3" d="M75.487 149.899 L 85.935 150.013 86.036 205.866 L 86.137 261.719 86.135 205.762 L 86.133 149.805 75.586 149.795 L 65.039 149.785 75.487 149.899 M190.021 150.100 C 189.917 150.373,189.881 155.603,189.941 161.724 L 190.052 172.852 190.143 161.426 L 190.234 150.000 223.214 150.000 C 254.285 150.000,256.204 150.040,256.394 150.684 C 256.551 151.215,256.578 151.193,256.515 150.586 C 256.414 149.603,190.397 149.121,190.021 150.100 M261.809 181.250 C 261.809 182.002,261.890 182.310,261.988 181.934 C 262.086 181.558,262.086 180.942,261.988 180.566 C 261.890 180.190,261.809 180.498,261.809 181.250 M131.157 219.417 C 131.643 219.510,132.346 219.507,132.719 219.409 C 133.093 219.311,132.695 219.235,131.836 219.239 C 130.977 219.243,130.671 219.323,131.157 219.417 M142.285 219.410 C 142.661 219.508,143.276 219.508,143.652 219.410 C 144.028 219.312,143.721 219.231,142.969 219.231 C 142.217 219.231,141.909 219.312,142.285 219.410 " stroke="none" fill="#60a3a4" fill-rule="evenodd"></path><path id="path4" d="M142.676 149.889 C 143.267 149.979,144.233 149.979,144.824 149.889 C 145.415 149.800,144.932 149.726,143.750 149.726 C 142.568 149.726,142.085 149.800,142.676 149.889 M102.143 205.859 C 102.143 236.689,102.189 249.302,102.246 233.887 C 102.303 218.472,102.303 193.247,102.246 177.832 C 102.189 162.417,102.143 175.029,102.143 205.859 M301.860 164.729 C 302.346 164.823,303.049 164.819,303.423 164.722 C 303.796 164.624,303.398 164.547,302.539 164.552 C 301.680 164.556,301.374 164.636,301.860 164.729 M122.445 165.332 C 122.342 165.601,122.305 174.434,122.363 184.961 L 122.469 204.102 122.562 184.675 L 122.656 165.249 131.934 165.136 L 141.211 165.024 131.921 164.934 C 124.782 164.865,122.588 164.957,122.445 165.332 M210.683 169.531 C 210.683 171.357,210.751 172.104,210.833 171.191 C 210.915 170.278,210.915 168.784,210.833 167.871 C 210.751 166.958,210.683 167.705,210.683 169.531 M283.302 179.102 C 283.306 179.961,283.386 180.267,283.479 179.781 C 283.573 179.295,283.569 178.592,283.472 178.218 C 283.374 177.845,283.297 178.242,283.302 179.102 M162.216 183.984 C 162.216 184.951,162.292 185.347,162.385 184.863 C 162.478 184.380,162.478 183.589,162.385 183.105 C 162.292 182.622,162.216 183.018,162.216 183.984 M253.291 206.250 C 253.291 210.869,253.347 212.759,253.416 210.449 C 253.486 208.140,253.486 204.360,253.416 202.051 C 253.347 199.741,253.291 201.631,253.291 206.250 M269.906 200.488 C 270.863 201.509,271.698 202.344,271.761 202.344 C 272.054 202.344,271.744 201.993,270.020 200.374 L 268.164 198.633 269.906 200.488 M172.436 209.473 L 171.289 210.742 172.559 209.595 C 173.742 208.525,174.008 208.203,173.706 208.203 C 173.639 208.203,173.067 208.774,172.436 209.473 M214.767 214.354 C 216.980 214.424,220.496 214.424,222.579 214.353 C 224.663 214.283,222.852 214.226,218.555 214.227 C 214.258 214.227,212.553 214.284,214.767 214.354 M122.448 240.234 C 122.448 252.158,122.498 257.036,122.558 251.074 C 122.619 245.112,122.619 235.356,122.558 229.395 C 122.498 223.433,122.448 228.311,122.448 240.234 M294.824 246.369 C 295.308 246.463,296.099 246.463,296.582 246.369 C 297.065 246.276,296.670 246.200,295.703 246.200 C 294.736 246.200,294.341 246.276,294.824 246.369 M299.707 246.363 C 300.083 246.461,300.698 246.461,301.074 246.363 C 301.450 246.265,301.143 246.184,300.391 246.184 C 299.639 246.184,299.331 246.265,299.707 246.363 M292.876 263.167 C 293.362 263.260,294.065 263.257,294.438 263.159 C 294.812 263.061,294.414 262.985,293.555 262.989 C 292.695 262.993,292.390 263.073,292.876 263.167 M301.079 263.167 C 301.565 263.260,302.268 263.257,302.641 263.159 C 303.015 263.061,302.617 262.985,301.758 262.989 C 300.898 262.993,300.593 263.073,301.079 263.167 " stroke="none" fill="#98c2c4" fill-rule="evenodd"></path></g></svg>